<?xml version="1.0" standalone="no"?><!DOCTYPE svg PUBLIC "-//W3C//DTD SVG 1.1//EN" "http://www.w3.org/Graphics/SVG/1.1/DTD/svg11.dtd"><svg t="1681397835002" class="icon" viewBox="0 0 1212 1024" version="1.1" xmlns="http://www.w3.org/2000/svg" p-id="2838" xmlns:xlink="http://www.w3.org/1999/xlink" width="236.71875" height="200"><path d="M485.888 1016.832H108.544C48.64 1016.32 0 968.192 0 908.288V108.544C0 48.64 48.64 0 108.544 0h995.328c59.904 0 108.032 48.64 108.544 108.544v330.24c0 19.968-16.384 36.352-36.352 36.352-19.968 0-36.352-16.384-36.352-36.352V108.544c0-19.968-15.872-35.84-35.84-35.84H108.544c-19.968 0-35.84 15.872-35.84 35.84v800.256c0 19.968 15.872 35.84 35.84 35.84h377.344c19.968 0 36.352 16.384 36.352 36.352 0 19.456-16.384 35.84-36.352 35.84z" fill="#ffffff" p-id="2839"></path><path d="M947.2 274.944H238.592c-22.016 1.024-40.96-16.384-41.984-38.912s16.384-40.96 38.912-41.984h711.68c22.016 1.024 39.424 19.456 38.912 41.984-1.024 20.992-17.92 37.888-38.912 38.912M641.024 479.744H238.592c-22.016-1.024-39.424-19.456-38.912-41.984 1.024-20.992 17.92-37.888 38.912-38.912h402.432c22.016-1.024 40.96 16.384 41.984 38.912 1.024 22.016-16.384 40.96-38.912 41.984h-3.072M399.872 684.544H238.592c-22.016-1.024-39.424-19.456-38.912-41.984 1.024-20.992 17.92-37.888 38.912-38.912h161.28c22.016-1.024 40.96 16.384 41.984 38.912 1.024 22.016-16.384 40.96-38.912 41.984h-3.072M915.456 756.224c96.768 0 175.616-75.776 175.616-168.448 0-93.184-78.848-168.448-175.616-168.448s-175.616 75.776-175.616 168.448c0 92.672 78.848 168.448 175.616 168.448z m-112.128-168.448c0-59.392 50.176-107.52 112.128-107.52s112.128 48.128 112.128 107.52-50.176 107.52-112.128 107.52-112.128-48.64-112.128-107.52zM1093.12 779.776h-86.528l-90.624 123.904-90.112-123.904h-92.672c-62.976 0-114.688 46.592-114.688 103.424v137.216h63.488v-137.216c0-23.04 23.04-41.984 51.2-41.984h59.904l122.88 168.96 123.904-168.96h53.76c28.16 0 51.2 18.944 51.2 41.984v137.216H1208.32v-137.216c-1.024-56.832-52.224-103.424-115.2-103.424z" fill="#ffffff" p-id="2840"></path></svg>