<?xml version="1.0" standalone="no"?><!DOCTYPE svg PUBLIC "-//W3C//DTD SVG 1.1//EN" "http://www.w3.org/Graphics/SVG/1.1/DTD/svg11.dtd"><svg t="1682582115130" class="icon" viewBox="0 0 1024 1024" version="1.1" xmlns="http://www.w3.org/2000/svg" p-id="3068" xmlns:xlink="http://www.w3.org/1999/xlink" width="200" height="200"><path d="M229.6 763.3z m641.1-449.1H716.8c-4.1 51.4-48.3 91.8-102.3 91.8h-205c-54 0-98.2-40.5-102.3-91.8H153.3c-39.3 0-71.4 31.2-71.4 69.3v450.4c0 38.1 32.1 69.3 71.4 69.3h717.4c39.3 0 71.4-31.2 71.4-69.3V383.5c0-38.1-32.1-69.3-71.4-69.3zM299.5 438.9c44.4 0 80.3 35.4 80.3 79.1 0 43.6-36 79.1-80.3 79.1-44.4 0-80.3-35.4-80.3-79.1 0.1-43.7 36-79.1 80.3-79.1z m147.8 282.3c0 28.6-18.5 42-48 42H206c-29.4 0-47.7-13.5-47.7-42v-72.1c0-28.6 53.7-50.4 83.2-50.4 0 0 8.6 0.1 12.6 2s32.7 20.3 45.5 20.3c12.8 0 45-18.1 49.3-20.3 4.4-2.3 10-1.9 10-1.9 29.4 0 88.3 21.6 88.3 50.2l0.1 72.2z m221.9 37.5H536.3c-10.2 0-24-11.7-24-26s14.8-26 25.1-26h130.3c10.2 0 23.1 11.7 23.1 26s-11.3 26-21.6 26z m157.2-101.8H540.9c-19.6 0-28.9-11.7-28.9-26s9.3-26 28.9-26h285.5c19.6 0 27.6 11.7 27.6 26s-7.9 26-27.6 26z m0.4-100.8H541.2c-19.6 0-28.9-11.7-28.9-26s9.2-26 28.9-26h285.5c19.7 0 27.6 11.7 27.6 26 0.1 14.2-7.9 26-27.5 26zM690 293.1c0 47.8-39.9 86.5-89.1 86.5H422.7c-49.2 0-89.1-38.7-89.1-86.5 0-47.7 39.8-86.4 88.8-86.5 0.5-47.4 40.2-85.7 89.1-85.7 49 0 88.6 38.3 89.1 85.7h0.3c49.2 0 89.1 38.7 89.1 86.5zM511.8 166c-29.3 0-53.1 23.1-53.1 51.5s23.8 51.6 53.1 51.6 53.1-23.1 53.1-51.6-23.8-51.5-53.1-51.5z" p-id="3069" fill="#ffffff"></path></svg>