<?xml version="1.0" standalone="no"?><!DOCTYPE svg PUBLIC "-//W3C//DTD SVG 1.1//EN" "http://www.w3.org/Graphics/SVG/1.1/DTD/svg11.dtd"><svg t="1681456861136" class="icon" viewBox="0 0 1024 1024" version="1.1" xmlns="http://www.w3.org/2000/svg" p-id="2230" xmlns:xlink="http://www.w3.org/1999/xlink" width="200" height="200"><path d="M862.72 251.904c0 20.992-17.92 33.792-40.448 33.792h-363.52c-28.16 0-53.76-41.984-50.176-68.096 2.56-17.408 22.016-35.84 39.936-35.84h375.296c2.56 0 5.12 2.56 9.216 4.096 17.92 2.56 29.696 22.016 29.696 40.448v25.6zM680.448 801.28h296.448c9.728-1.024 8.704 2.048 8.704-8.704v-24.064c0-13.312-3.072-16.384-16.384-16.384H911.36c-7.68-5.632-8.704-13.312-10.752-15.36-33.792-37.376-14.336-62.464 6.656-97.28 4.096-4.608 7.68-9.728 10.752-15.36 8.704-15.36 13.312-32.768 13.312-51.712 0-59.904-48.128-108.544-108.544-108.544-59.904 0-108.544 48.128-108.544 108.544 0 25.088 8.704 48.128 23.04 66.56 23.04 36.352 60.416 66.56 0 113.664h-57.856c-10.752 0-16.384 5.632-16.384 16.384v25.088c0.512 8.704 7.168 7.168 17.408 7.168z m321.536 16.384h-355.328c-4.608 0-8.704 4.096-8.704 8.704v8.704c0 4.608 4.096 8.704 8.704 8.704h354.304c4.608 0 8.704-4.096 8.704-8.704v-8.704c0-5.12-3.584-8.704-7.68-8.704z" p-id="2231" fill="#ffffff"></path><path d="M861.184 365.056v79.36c-52.224-4.096-151.552 5.12-168.96 125.952 0 0-3.584 111.104 40.96 138.24 0 0-110.592 39.936-124.928 135.168H71.68c-22.016 0-38.912-12.8-38.912-34.816V227.328c0-19.456 16.896-45.568 38.912-46.592h267.776c22.016 0 33.28 23.552 39.936 40.96 7.68 19.456 14.336 38.912 23.552 57.856l10.24 20.992c5.12 14.848 19.456 25.088 34.816 24.576h376.832c20.992-0.512 36.352 17.92 36.352 39.936z" p-id="2232" fill="#ffffff"></path></svg>