<?xml version="1.0" standalone="no"?><!DOCTYPE svg PUBLIC "-//W3C//DTD SVG 1.1//EN" "http://www.w3.org/Graphics/SVG/1.1/DTD/svg11.dtd"><svg t="1681456846121" class="icon" viewBox="0 0 1024 1024" version="1.1" xmlns="http://www.w3.org/2000/svg" p-id="2020" xmlns:xlink="http://www.w3.org/1999/xlink" width="200" height="200"><path d="M681.66 562.68c-4.56-3.05-10.64-3.05-13.67 0l-21.27 21.37 94.21 93.12 21.27-22.9c1.52-1.53 3.04-3.05 3.04-4.58 0-1.53-1.52-4.58-3.04-6.11l-80.54-80.9z" fill="#ffffff" p-id="2021"></path><path d="M805.25 98.11H461.34l0.07 230.7-67.69 66.06-66.1-66.06V98.11H220.01c-31.6 0-57.22 25.49-57.22 56.94v714.8c0 31.45 25.62 56.94 57.22 56.94h585.25c31.6 0 57.22-25.49 57.22-56.94v-714.8c0-31.45-25.62-56.94-57.23-56.94z m-21.78 577.54L628.48 829.83c-4.56 6.1-10.64 9.16-18.23 10.68L497.8 860.36h-4.56c-9.12 0-16.72-3.05-22.8-9.16-6.08-6.11-9.12-16.79-9.12-25.95l19.75-112.97c1.52-7.63 4.56-13.74 10.64-18.32L646.7 539.78c15.2-15.27 41.03-15.27 56.22 0l80.53 80.91c7.6 7.63 12.15 16.79 12.15 27.48 0.02 10.68-4.54 19.84-12.13 27.48z" fill="#ffffff" p-id="2022"></path></svg>