<?xml version="1.0" standalone="no"?><!DOCTYPE svg PUBLIC "-//W3C//DTD SVG 1.1//EN" "http://www.w3.org/Graphics/SVG/1.1/DTD/svg11.dtd"><svg t="1681481867503" class="icon" viewBox="0 0 1024 1024" version="1.1" xmlns="http://www.w3.org/2000/svg" p-id="1278" xmlns:xlink="http://www.w3.org/1999/xlink" width="200" height="200"><path d="M745.940114 569.197714a160.914286 160.914286 0 0 1 119.164343 269.048686l50.819657 60.562286a22.352457 22.352457 0 0 1-0.117028 28.8768l-2.4576 2.4576a21.621029 21.621029 0 0 1-28.291657-0.234057l-2.223543-2.282058-51.346286-61.205942a160.914286 160.914286 0 1 1-85.547886-297.252572z m0 43.885715a117.028571 117.028571 0 1 0 0 234.057142 117.028571 117.028571 0 0 0 0-234.057142zM401.729829 117.028571a58.514286 58.514286 0 0 1 42.949485 18.753829l104.301715 112.669257h278.410971a80.457143 80.457143 0 0 1 80.310857 75.5712l0.146286 4.885943v160.329143a21.942857 21.942857 0 0 1-43.680914 2.954971l-0.2048-2.984228v-160.299886A36.571429 36.571429 0 0 0 831.136914 292.571429l-3.744914-0.2048h-237.7728l0.2048 0.234057H132.476343v461.092571c0 18.958629 14.394514 34.523429 32.855771 36.395886l3.715657 0.2048h309.130972a21.942857 21.942857 0 0 1 2.984228 43.680914l-2.984228 0.2048H169.047771a80.457143 80.457143 0 0 1-80.310857-75.5712l-0.146285-4.885943V292.571429H87.771429V175.542857a58.514286 58.514286 0 0 1 58.514285-58.514286h255.444115z m95.524571 415.597715a21.942857 21.942857 0 0 1 2.984229 43.680914l-2.984229 0.2048H233.706057a21.942857 21.942857 0 0 1-2.954971-43.680914l2.954971-0.2048h263.548343z m0-146.285715a21.942857 21.942857 0 0 1 2.984229 43.680915l-2.984229 0.2048H233.706057a21.942857 21.942857 0 0 1-2.954971-43.680915l2.954971-0.2048h263.548343zM401.729829 160.914286H146.285714a14.628571 14.628571 0 0 0-14.628571 14.628571l-0.029257 72.9088H489.179429L412.4672 165.595429a14.628571 14.628571 0 0 0-10.737371-4.681143z" fill="#ffffff" p-id="1279"></path></svg>