<?xml version="1.0" standalone="no"?><!DOCTYPE svg PUBLIC "-//W3C//DTD SVG 1.1//EN" "http://www.w3.org/Graphics/SVG/1.1/DTD/svg11.dtd"><svg t="1681481822574" class="icon" viewBox="0 0 1024 1024" version="1.1" xmlns="http://www.w3.org/2000/svg" p-id="640" xmlns:xlink="http://www.w3.org/1999/xlink" width="200" height="200"><path d="M913.92 1024H110.08C49.28 1024 0 970.88 0 904.96V119.04C0 53.12 49.28 0 110.08 0h803.2C974.72 0 1024 53.12 1024 119.04v786.56c0 65.28-49.28 118.4-110.08 118.4zM110.08 74.24c-20.48 0-37.12 17.92-37.12 40.32v796.16c0 22.4 16.64 40.32 37.12 40.32h803.84c20.48 0 37.12-17.92 37.12-40.32V114.56c0-22.4-16.64-40.32-37.12-40.32H110.08z" fill="#ffffff" p-id="641"></path><path d="M547.84 706.56H183.68c-19.84 0-36.48-15.36-37.12-35.84-0.64-20.48 16-37.12 36.48-37.12h364.16c19.84 0 37.12 15.36 37.12 35.84a35.84 35.84 0 0 1-36.48 37.12zM549.12 358.4H182.4a36.864 36.864 0 0 1-0.64-73.6h366.72c19.84 0 37.12 15.36 37.12 35.84 0.64 20.48-16 37.76-36.48 37.76zM705.92 425.6a35.84 35.84 0 0 1-25.6-10.88l-60.16-59.52a37.12 37.12 0 0 1 0-51.84 37.12 37.12 0 0 1 51.84 0l33.92 33.92 109.44-109.44a37.12 37.12 0 0 1 51.84 0c14.08 14.08 14.08 37.12 0 51.84l-135.68 135.68a35.2 35.2 0 0 1-25.6 10.24zM840.32 801.28a35.84 35.84 0 0 1-25.6-10.88L627.2 602.88a37.12 37.12 0 0 1 0-51.84 37.12 37.12 0 0 1 51.84 0l187.52 187.52c14.08 14.08 14.08 37.12 0 51.84-7.68 7.04-16.64 10.88-26.24 10.88z" fill="#ffffff" p-id="642"></path><path d="M652.8 800a35.84 35.84 0 0 1-25.6-10.88 37.12 37.12 0 0 1 0-51.84l187.52-187.52a37.12 37.12 0 0 1 51.84 0c14.08 14.08 14.08 37.12 0 51.84l-187.52 187.52c-7.04 7.04-16.64 10.88-26.24 10.88z" fill="#ffffff" p-id="643"></path></svg>