<?xml version="1.0" standalone="no"?><!DOCTYPE svg PUBLIC "-//W3C//DTD SVG 1.1//EN" "http://www.w3.org/Graphics/SVG/1.1/DTD/svg11.dtd"><svg t="1681806063314" class="icon" viewBox="0 0 1024 1024" version="1.1" xmlns="http://www.w3.org/2000/svg" p-id="2606" xmlns:xlink="http://www.w3.org/1999/xlink" width="200" height="200"><path d="M566.8 411.3m-47 0a47 47 0 1 0 94 0 47 47 0 1 0-94 0Z" fill="#ffffff" p-id="2607"></path><path d="M284.7 411.3m-47 0a47 47 0 1 0 94 0 47 47 0 1 0-94 0Z" fill="#ffffff" p-id="2608"></path><path d="M425.8 411.3m-47 0a47 47 0 1 0 94 0 47 47 0 1 0-94 0Z" fill="#ffffff" p-id="2609"></path><path d="M849.6 422.2H755V276.1c0-51.9-42.1-94-94-94H191c-51.9 0-94 42.1-94 94v269.2c0 51.8 42.1 93.9 94 93.9h93.8v48.1c0 17.6 9.9 33.4 25.7 41.1 6.6 3.2 13.5 4.9 20.4 4.9 9.9 0 19.8-3.3 27.9-9.6l99.1-76.4v44.4c0 42.7 34.7 77.4 77.3 77.4h147.2l83.3 64.4c7.3 5.5 15.7 8.3 24.6 8.3 6.1 0 12.2-1.4 17.9-4.2 14-6.9 22.6-20.8 22.6-36.2v-32.3h18.9c42.7 0 77.4-34.7 77.4-77.4v-192c-0.1-42.8-34.8-77.5-77.5-77.5zM460.8 592.3c-5.2 0-10.2 1.6-14.3 4.8l-114.8 90.3v-71.6c0-13-10.5-23.4-23.5-23.4H191c-26 0-47-21-47-47V276.1c0-26 21-47 47-47h470c26.1 0 47.1 21 47.1 47v269.2c0 25.9-21 47-47.1 47H460.8z m388.8 131h-42c-12.6 0-23 10.3-23 23v45.1L703.9 728c-4-3.2-8.8-4.8-14.1-4.8l-154.7 0.2c-17.3 0-31.4-14.1-31.4-31.5v-52.6h157.1c51.9 0 94-42.1 94-93.9v-77.1h94.6c17.3 0 31.3 14.1 31.3 31.4v192.2h0.1c0.2 17.3-13.9 31.4-31.2 31.4z" fill="#ffffff" p-id="2610"></path></svg>