<?xml version="1.0" standalone="no"?><!DOCTYPE svg PUBLIC "-//W3C//DTD SVG 1.1//EN" "http://www.w3.org/Graphics/SVG/1.1/DTD/svg11.dtd"><svg t="1681456924434" class="icon" viewBox="0 0 1024 1024" version="1.1" xmlns="http://www.w3.org/2000/svg" p-id="4307" xmlns:xlink="http://www.w3.org/1999/xlink" width="200" height="200"><path d="M902.9 103.8H128c-32.1 0-58.2 26.1-58.2 58.2v392.2h70V173.8h751.4v705.7H139.7V805h-70v86.2c0 32.1 26.1 58.2 58.2 58.2h775c32.1 0 58.2-26.1 58.2-58.2V162c0.1-32.1-26.1-58.2-58.2-58.2z" p-id="4308" fill="#ffffff"></path><path d="M338 434.8L88.6 703.2l51.3 47.7L338 537.7l122.9 132.4 247.6-266.5v111.5h70V276.6H540v70h125.9l-205 220.6z" p-id="4309" fill="#ffffff"></path></svg>