<?xml version="1.0" standalone="no"?><!DOCTYPE svg PUBLIC "-//W3C//DTD SVG 1.1//EN" "http://www.w3.org/Graphics/SVG/1.1/DTD/svg11.dtd"><svg t="1681456897393" class="icon" viewBox="0 0 1024 1024" version="1.1" xmlns="http://www.w3.org/2000/svg" p-id="3292" xmlns:xlink="http://www.w3.org/1999/xlink" width="200" height="200"><path d="M306.4 387.2h-44.6c-0.9 0-1.7 0.8-1.7 1.7v44.6c0 0.9 0.8 1.7 1.7 1.7h44.6c0.9 0 1.7-0.8 1.7-1.7v-44.6c0-0.9-0.8-1.7-1.7-1.7z m303.6 0H361.5c-0.9 0-1.7 0.8-1.7 1.7v44.6c0 0.9 0.8 1.7 1.7 1.7H610c0.9 0 1.7-0.8 1.7-1.7v-44.6c0-0.9-0.8-1.7-1.7-1.7zM305.4 498.1h-44.6c-0.9 0-1.7 0.8-1.7 1.7v44.6c0 0.9 0.8 1.7 1.7 1.7h44.6c0.9 0 1.7-0.8 1.7-1.7v-44.6c0-1-0.8-1.7-1.7-1.7z m303.9 0H360.8c-0.9 0-1.7 0.8-1.7 1.7v44.6c0 0.9 0.8 1.7 1.7 1.7h248.5c0.9 0 1.7-0.8 1.7-1.7v-44.6c0-1-0.8-1.7-1.7-1.7zM853.4 794h-9.3c-3.9 0-7.2-2.7-7.9-6.5-2.3-12.5-3.1-29.3-2.3-48.6 0.1-1.9 0.9-3.8 2.2-5.2l0.3-0.3c11.1-11.3 18-26.6 18-43.4 0-17.5-7.4-33.4-19.3-44.8-11.6-11.9-27.8-19.2-45.7-19.2s-34 7.4-45.7 19.2c-11.9 11.4-19.3 27.3-19.3 44.8 0 16.8 6.9 32.1 18 43.4l0.3 0.3c1.3 1.4 2.1 3.2 2.2 5.2 0.8 19.3-0.1 36.1-2.3 48.6-0.7 3.8-4 6.5-7.9 6.5h-9.3c-30.9 0-56 25.1-56 56v1.3c0 21.4 17.3 38.7 38.7 38.7h162.7c21.4 0 38.7-17.3 38.7-38.7V850c-0.1-30.9-25.2-56-56.1-56z m-80.8-76.5c-0.5-0.3-1-0.7-1.5-1.1-0.4-0.4-0.8-0.7-1.2-1-8-6.1-12.6-15.4-12.6-25.5 0-16.3 12.3-29.8 28-31.7 1.3-0.2 2.6-0.2 4-0.2s2.7 0.1 4 0.2c15.8 2 28 15.4 28 31.7 0 10.1-4.6 19.3-12.6 25.5-0.4 0.3-0.8 0.6-1.2 1-0.4 0.4-0.9 0.8-1.5 1.1-4.9 2.8-10.6 4.4-16.8 4.4s-11.7-1.5-16.6-4.4zM869.4 858h-160c-4.4 0-8-3.6-8-8 0-13.3 10.7-24 24-24h26.9c6.1 0 11.7-3.5 14.4-8.9 7.2-14.7 9.9-35.7 10.4-56.4 0.1-4.5 3.9-8.1 8.4-7.8 1.3 0.1 2.6 0.1 4 0.1s2.7 0 4-0.1c4.5-0.3 8.3 3.3 8.4 7.8 0.5 20.7 3.2 41.7 10.4 56.4 2.7 5.5 8.3 8.9 14.4 8.9h26.9c13.3 0 24 10.7 24 24-0.2 4.4-3.8 8-8.2 8z m13 80h-186c-6.1 0-11-4.9-11-11v-10c0-6.1 4.9-11 11-11h186c6.1 0 11 4.9 11 11v10c0 6.1-4.9 11-11 11z" p-id="3293" fill="#ffffff"></path><path d="M611.4 898H162.6V181h84.3v65c0 1.1 0.9 2 2 2h429c1.1 0 2-0.9 2-2v-65h83.8v381h48V135c0-1.1-0.9-2-2-2H679.9V80c0-1.1-0.9-2-2-2h-429c-1.1 0-2 0.9-2 2v53H116.6c-1.1 0-2 0.9-2 2v809c0 1.1 0.9 2 2 2h494.8v-48zM294.9 128c0-1.1 0.9-2 2-2h333c1.1 0 2 0.9 2 2v70c0 1.1-0.9 2-2 2h-333c-1.1 0-2-0.9-2-2v-70z" p-id="3294" fill="#ffffff"></path></svg>