<?xml version="1.0" standalone="no"?><!DOCTYPE svg PUBLIC "-//W3C//DTD SVG 1.1//EN" "http://www.w3.org/Graphics/SVG/1.1/DTD/svg11.dtd"><svg t="1681021842223" class="icon" viewBox="0 0 1024 1024" version="1.1" xmlns="http://www.w3.org/2000/svg" p-id="15963" xmlns:xlink="http://www.w3.org/1999/xlink" width="200" height="200"><path d="M791.272727 162.909091h-74.472727l-76.8-76.8c-4.654545-4.654545-11.636364-6.981818-18.618182-6.981818H232.727273c-39.563636 0-69.818182 32.581818-69.818182 69.818182V791.272727c0 39.563636 32.581818 69.818182 69.818182 69.818182h13.963636v13.963636c0 39.563636 32.581818 69.818182 69.818182 69.818182H791.272727c39.563636 0 69.818182-32.581818 69.818182-69.818182V232.727273c0-39.563636-30.254545-69.818182-69.818182-69.818182z m-144.290909 9.309091l32.581818 32.581818h-18.618181c-9.309091 0-13.963636-6.981818-13.963637-13.963636v-18.618182zM218.763636 791.272727V146.618182c0-6.981818 6.981818-13.963636 13.963637-13.963637h358.4v58.181819c0 39.563636 32.581818 69.818182 69.818182 69.818181h58.181818V791.272727c0 6.981818-6.981818 13.963636-13.963637 13.963637H232.727273c-6.981818 0-13.963636-6.981818-13.963637-13.963637z m586.472728 86.109091c0 6.981818-6.981818 13.963636-13.963637 13.963637H318.836364c-6.981818 0-13.963636-6.981818-13.963637-13.963637V861.090909h400.290909c39.563636 0 69.818182-32.581818 69.818182-69.818182V232.727273c0-4.654545-2.327273-9.309091-4.654545-13.963637h20.945454c9.309091 0 13.963636 6.981818 13.963637 13.963637v644.654545z" fill="#ffffff" p-id="15964"></path><path d="M467.781818 656.290909c-83.781818 0-151.272727-67.490909-151.272727-151.272727 0-13.963636 2.327273-27.927273 6.981818-41.890909 2.327273 4.654545 9.309091 9.309091 13.963636 11.636363 2.327273 0 4.654545 2.327273 6.981819 2.327273 11.636364 0 23.272727-6.981818 25.6-20.945454l27.927272-93.09091c2.327273-4.654545 2.327273-11.636364 2.327273-16.290909 0-2.327273-2.327273-4.654545-2.327273-4.654545v-2.327273c-2.327273-2.327273-2.327273-4.654545-4.654545-6.981818-6.981818-6.981818-18.618182-9.309091-27.927273-4.654545l-93.090909 34.90909c-16.290909 2.327273-23.272727 18.618182-16.290909 32.581819 4.654545 11.636364 16.290909 18.618182 25.6 18.618181-13.963636 27.927273-20.945455 58.181818-20.945455 90.763637 0 114.036364 93.090909 207.127273 207.127273 207.127273 16.290909 0 27.927273-11.636364 27.927273-27.927273s-13.963636-27.927273-27.927273-27.927273zM649.309091 605.090909c16.290909-30.254545 25.6-62.836364 25.6-100.072727 0-114.036364-93.090909-207.127273-207.127273-207.127273-16.290909 0-27.927273 11.636364-27.927273 27.927273s11.636364 27.927273 27.927273 27.927273c83.781818 0 151.272727 67.490909 151.272727 151.272727 0 16.290909-2.327273 30.254545-6.981818 44.218182-2.327273-2.327273-6.981818-6.981818-11.636363-9.309091-13.963636-4.654545-30.254545 2.327273-34.909091 16.290909l-34.909091 93.090909c-2.327273 6.981818-2.327273 16.290909 2.327273 23.272727 0 2.327273 2.327273 2.327273 2.327272 4.654546 4.654545 6.981818 13.963636 9.309091 20.945455 9.309091 4.654545 0 9.309091 0 11.636363-2.327273l90.763637-27.927273c13.963636-4.654545 23.272727-20.945455 18.618182-34.909091-2.327273-11.636364-16.290909-18.618182-27.927273-16.290909z" fill="#ffffff" p-id="15965"></path></svg>