<?xml version="1.0" standalone="no"?><!DOCTYPE svg PUBLIC "-//W3C//DTD SVG 1.1//EN" "http://www.w3.org/Graphics/SVG/1.1/DTD/svg11.dtd"><svg t="1681021741112" class="icon" viewBox="0 0 1024 1024" version="1.1" xmlns="http://www.w3.org/2000/svg" p-id="13756" xmlns:xlink="http://www.w3.org/1999/xlink" width="200" height="200"><path d="M998.4 691.2h-102.4V166.4c0-42.24-34.56-76.8-76.8-76.8H524.8L468.48 10.24c-3.84-6.4-12.8-10.24-20.48-10.24H153.6c-14.08 0-25.6 11.52-25.6 25.6v665.6H25.6c-14.08 0-25.6 11.52-25.6 25.6v153.6c0 84.48 69.12 153.6 153.6 153.6h716.8c84.48 0 153.6-69.12 153.6-153.6V716.8c0-14.08-11.52-25.6-25.6-25.6zM179.2 51.2h256l56.32 79.36c5.12 6.4 12.8 10.24 20.48 10.24h307.2c14.08 0 25.6 11.52 25.6 25.6v524.8H640c-14.08 0-25.6 11.52-25.6 25.6 0 56.32-46.08 102.4-102.4 102.4s-102.4-46.08-102.4-102.4c0-14.08-11.52-25.6-25.6-25.6H179.2V51.2z m793.6 819.2c0 56.32-46.08 102.4-102.4 102.4H153.6c-56.32 0-102.4-46.08-102.4-102.4V742.4h309.76c12.8 72.96 75.52 128 151.04 128s139.52-55.04 151.04-128H972.8v128z" fill="#ffffff" p-id="13757"></path><path d="M486.4 576c0 14.08 11.52 25.6 25.6 25.6s25.6-11.52 25.6-25.6V316.16l117.76 116.48c10.24 10.24 26.88 10.24 35.84 0 10.24-10.24 10.24-26.88 0-35.84L529.92 236.8h-1.28c-1.28-1.28-2.56-1.28-2.56-2.56-1.28 0-1.28-1.28-2.56-1.28s-1.28-1.28-2.56-1.28-1.28 0-2.56-1.28h-15.36c-1.28 0-1.28 0-2.56 1.28-1.28 0-1.28 1.28-2.56 1.28s-1.28 1.28-2.56 1.28l-2.56 2.56s-1.28 0-1.28 1.28L332.8 396.8c-10.24 10.24-10.24 25.6 0 35.84 5.12 5.12 11.52 7.68 17.92 7.68 6.4 0 12.8-2.56 17.92-7.68l117.76-116.48V576z" fill="#ffffff" p-id="13758"></path></svg>