<?xml version="1.0" standalone="no"?><!DOCTYPE svg PUBLIC "-//W3C//DTD SVG 1.1//EN" "http://www.w3.org/Graphics/SVG/1.1/DTD/svg11.dtd"><svg t="1681021672960" class="icon" viewBox="0 0 1024 1024" version="1.1" xmlns="http://www.w3.org/2000/svg" p-id="13224" xmlns:xlink="http://www.w3.org/1999/xlink" width="200" height="200"><path d="M637.635555 233.619911H364.515325a35.314855 35.314855 0 0 1 0-70.617253h273.12023a35.314855 35.314855 0 0 1 0 70.617253zM584.027979 346.27243H364.515325a35.314855 35.314855 0 0 1 0-70.617253h219.512654a35.314855 35.314855 0 0 1 0 70.617253zM539.875068 458.924949H364.515325a35.314855 35.314855 0 0 1 0-70.617253H539.875068a35.314855 35.314855 0 0 1 0 70.617253z" p-id="13225" fill="#ffffff"></path><path d="M974.889307 660.126197h-48.786819l81.006174-350.084192c2.889963-12.531479-7.41176-25.617284-22.988912-29.217281l-176.636559-40.870561V74.229708c0-19.544623-15.81383-35.395824-35.314855-35.395824H251.451733a35.352225 35.352225 0 0 0-35.314855 35.395824v30.450498L39.550146 140.032431c-16.305871 3.257437-26.838044 19.301717-23.53078 35.813125l96.944571 484.274413H48.693393c-21.519017 0-38.970908 16.181304-38.970908 36.124543v255.219897c0 19.943239 17.451891 36.124543 38.970908 36.124543h926.195914c21.519017 0 38.977136-16.181304 38.977136-36.124543v-255.219897c0-19.937011-17.45812-36.118315-38.977136-36.118315z m-47.25464-319.882828l-73.831092 319.882828h-46.326612V312.446156l120.157704 27.797213z m-190.781186-230.786004v550.668832H617.52415a108.373629 108.373629 0 0 1 2.273355 22.07957c0 59.649095-48.357061 108.012384-108.006155 108.012384s-108.006155-48.363289-108.006156-108.012384c0-7.567469 0.791003-14.948087 2.273355-22.07957H286.76036V109.457365h450.093121zM93.139037 201.332044l123.00407-24.626973v483.421126h-31.085793L93.139037 201.332044z m850.103924 715.639655H80.339738v-186.215791h259.5237c21.20137 74.977112 90.249074 130.091954 171.927912 130.091953s150.720313-55.114842 171.927911-130.091953h259.5237v186.215791z" p-id="13226" fill="#ffffff"></path></svg>