<?xml version="1.0" standalone="no"?><!DOCTYPE svg PUBLIC "-//W3C//DTD SVG 1.1//EN" "http://www.w3.org/Graphics/SVG/1.1/DTD/svg11.dtd"><svg t="1681021604452" class="icon" viewBox="0 0 1024 1024" version="1.1" xmlns="http://www.w3.org/2000/svg" p-id="12926" xmlns:xlink="http://www.w3.org/1999/xlink" width="200" height="200"><path d="M1002.057143 431.542857c-7.314286-14.628571-29.257143-21.942857-43.885714-21.942857h-95.085715V277.942857c0-29.257143-21.942857-58.514286-58.514285-58.514286H475.428571l-73.142857-80.457142c-14.628571-7.314286-29.257143-14.628571-43.885714-14.628572h-292.571429c-29.257143 0-51.2 21.942857-51.2 51.2v680.228572c0 21.942857 21.942857 43.885714 43.885715 43.885714h760.685714c21.942857 0 43.885714-14.628571 51.2-36.571429l138.971429-380.342857c7.314286-14.628571 0-36.571429-7.314286-51.2z m-226.742857-21.942857H270.628571c-21.942857 0-36.571429 14.628571-43.885714 29.257143L102.4 716.8v-512h248.685714l73.142857 80.457143c7.314286 14.628571 21.942857 14.628571 36.571429 14.628571h314.514286v109.714286z m138.971428 87.771429l-117.028571 321.828571H146.285714l146.285715-321.828571h621.714285z" fill="#ffffff" p-id="12927"></path></svg>