<?xml version="1.0" standalone="no"?><!DOCTYPE svg PUBLIC "-//W3C//DTD SVG 1.1//EN" "http://www.w3.org/Graphics/SVG/1.1/DTD/svg11.dtd"><svg t="1681457242369" class="icon" viewBox="0 0 1067 1024" version="1.1" xmlns="http://www.w3.org/2000/svg" p-id="5525" xmlns:xlink="http://www.w3.org/1999/xlink" width="208.3984375" height="200"><path d="M678.306154 1024a23.774272 23.774272 0 0 1-23.774272-23.717396v-102.37725a23.944901 23.944901 0 0 1 11.773383-21.101088l151.06332-94.130194a94.983337 94.983337 0 0 1-53.293046-84.802488 95.836481 95.836481 0 0 1 96.689624-94.869584 95.836481 95.836481 0 0 1 96.689625 94.869584 95.040213 95.040213 0 0 1-53.179294 84.802488l151.120196 94.243946a24.001777 24.001777 0 0 1 11.716507 20.987336v102.37725a23.831149 23.831149 0 0 1-23.831148 23.717396z m23.66052-47.548545h317.255721v-54.487447h-317.255721z m39.13086-96.689624h238.880249l-67.682737-42.259054-51.643635-31.39569-59.1513 35.94579z m125.696512-132.180405a10.067096 10.067096 0 0 0 2.388802 0.511887h0.284382a9.668962 9.668962 0 0 0 2.730059-1.421907 14.389691 14.389691 0 0 1 7.621418-2.843812h1.308154a50.221729 50.221729 0 0 0 30.656298-45.899134 50.676739 50.676739 0 0 0-51.188624-50.107976 50.733615 50.733615 0 0 0-51.188625 50.107976 50.733615 50.733615 0 0 0 48.515441 49.994224 8.417685 8.417685 0 0 1 4.379471-1.137525 19.394801 19.394801 0 0 1 4.493224 1.023772zM153.793379 1016.151078a97.030882 97.030882 0 0 1-96.689624-97.030882V96.974006a96.120862 96.120862 0 0 1 28.438125-68.535881 95.779605 95.779605 0 0 1 68.251499-28.438125h504.71984l231.315708 254.63497v320.497667h-56.87625V330.962897h-222.613641a51.188625 51.188625 0 0 1-51.188625-51.188625V57.103755H153.850255a39.813375 39.813375 0 0 0-39.813374 39.813375v822.146189a40.154632 40.154632 0 0 0 11.773383 28.438125 40.666519 40.666519 0 0 0 28.438125 11.83026h457.455677v56.87625z m476.907354-742.121307h195.313042L630.700733 56.87625z m-362.756721 536.57054a28.438125 28.438125 0 0 1-28.438124-28.438125 28.438125 28.438125 0 0 1 28.438124-28.438125h273.916019a28.438125 28.438125 0 0 1 28.438125 28.438125 28.438125 28.438125 0 0 1-28.438125 28.438125z m0-182.74339a28.438125 28.438125 0 0 1-28.438124-28.438125 28.438125 28.438125 0 0 1 28.438124-28.438125h410.874028a28.438125 28.438125 0 0 1 28.438125 28.438125 28.438125 28.438125 0 0 1-28.438125 28.438125z m410.874028-182.629638H267.944012a28.438125 28.438125 0 0 1-28.438124-28.438125 28.438125 28.438125 0 0 1 28.438124-28.438125h411.15841a28.438125 28.438125 0 0 1 24.513663 14.162186 28.438125 28.438125 0 0 1 0 28.438125 28.438125 28.438125 0 0 1-24.57054 14.219063zM267.944012 262.427016a28.438125 28.438125 0 0 1-27.755609-28.438125 28.438125 28.438125 0 0 1 27.584981-28.438125h114.321262a28.438125 28.438125 0 0 1 28.438124 28.438125 28.438125 28.438125 0 0 1-28.438124 28.438125z" p-id="5526" fill="#ffffff"></path></svg>