<?xml version="1.0" standalone="no"?><!DOCTYPE svg PUBLIC "-//W3C//DTD SVG 1.1//EN" "http://www.w3.org/Graphics/SVG/1.1/DTD/svg11.dtd"><svg t="1681457372104" class="icon" viewBox="0 0 1028 1024" version="1.1" xmlns="http://www.w3.org/2000/svg" p-id="6092" xmlns:xlink="http://www.w3.org/1999/xlink" width="200.78125" height="200"><path d="M939.020747 769.062241H89.228216c-46.781079 0-84.979253-38.198174-84.979253-84.979253V89.228216C4.248963 42.447137 42.447137 4.248963 89.228216 4.248963h849.792531c46.781079 0 84.979253 38.198174 84.979253 84.979253v594.854772c0 46.781079-38.240664 84.979253-84.979253 84.979253z m-42.447137-594.854772L684.082988 216.654606l83.279668 66.708714L620.348548 476.308714l-176.33195-197.151868c-15.721162-24.643983-56.553693-24.643983-72.274855 0l-212.405643 254.93776c-12.321992 19.970124-6.373444 46.313693 13.55419 58.635684 6.84083 4.248963 14.871369 6.373444 22.561992 6.373444 14.021577 0 28.043154-7.223237 36.073693-19.970124L407.900415 381.981743l176.33195 197.151867c15.721162 24.643983 56.553693 24.643983 72.274855 0l178.031535-242.233361 62.034855 49.712863V174.207469z m-169.958506 849.792531H301.633859c-23.411784 0-42.447137-18.992863-42.447137-42.447137 0-23.496763 19.035353-42.532116 42.447137-42.532116h424.981245c23.411784 0 42.447137 19.035353 42.447137 42.532116 0 23.454274-19.035353 42.447137-42.447137 42.447137z" fill="#ffffff" p-id="6093"></path></svg>