<?xml version="1.0" standalone="no"?><!DOCTYPE svg PUBLIC "-//W3C//DTD SVG 1.1//EN" "http://www.w3.org/Graphics/SVG/1.1/DTD/svg11.dtd"><svg t="1681457445767" class="icon" viewBox="0 0 1024 1024" version="1.1" xmlns="http://www.w3.org/2000/svg" p-id="6352" xmlns:xlink="http://www.w3.org/1999/xlink" width="200" height="200"><path d="M391.1 822.9c0 23.1 18.7 41.7 41.7 41.7H458c3.6 15.9 17.8 27.8 34.8 27.8h36.5c17 0 31.2-11.9 34.8-27.8h25.2c23.1 0 41.7-18.7 41.7-41.7v-18.2H391v18.2zM511.2 243.7c14.4 0 26.1-11.7 26.1-26.1v-59.9c0-14.4-11.7-26.1-26.1-26.1-14.4 0-26.1 11.7-26.1 26.1v59.9c0 14.4 11.6 26.1 26.1 26.1zM318.4 324.3c10.2-10.2 10.2-26.7 0-36.9L276 245c-10.2-10.2-26.7-10.2-36.9 0s-10.2 26.7 0 36.9l42.4 42.4c5.1 5.1 11.8 7.6 18.4 7.6 6.7 0 13.4-2.5 18.5-7.6zM212.9 491.5H153c-14.4 0-26.1 11.7-26.1 26.1 0 14.4 11.7 26.1 26.1 26.1h59.9c14.4 0 26.1-11.7 26.1-26.1 0-14.5-11.7-26.1-26.1-26.1zM871 489.8h-59.9c-14.4 0-26.1 11.7-26.1 26.1 0 14.4 11.7 26.1 26.1 26.1H871c14.4 0 26.1-11.7 26.1-26.1 0-14.4-11.7-26.1-26.1-26.1zM783.7 243.8c-10.2-10.2-26.7-10.2-36.9 0l-42.4 42.4c-10.2 10.2-10.2 26.7 0 36.9 5.1 5.1 11.8 7.6 18.4 7.6s13.4-2.5 18.4-7.6l42.4-42.4c10.3-10.2 10.3-26.7 0.1-36.9zM496.8 293.8C383.2 300.9 291.7 394.6 287 508.2c-2.7 64.6 22 123.2 63.3 165.7 26 26.6 40.8 62.2 40.8 99.5H485v-235l-47.4 47.4c-10.2 10.2-26.7 10.2-36.9 0s-10.2-26.7 0-36.9l91.9-91.9c1.2-1.2 2.6-2.3 4-3.3 0.6-0.4 1.3-0.7 1.9-1.1 0.8-0.5 1.7-1 2.5-1.3 0.8-0.4 1.7-0.6 2.6-0.8 0.8-0.2 1.5-0.5 2.3-0.7 3.4-0.7 6.8-0.7 10.2 0 0.8 0.2 1.5 0.4 2.3 0.7 0.9 0.3 1.8 0.5 2.6 0.8 0.9 0.4 1.7 0.9 2.5 1.3 0.6 0.4 1.3 0.6 1.9 1.1 1.4 1 2.8 2.1 4 3.3l91.9 91.9c10.2 10.2 10.2 26.7 0 36.9-5.1 5.1-11.8 7.6-18.4 7.6-6.7 0-13.4-2.5-18.4-7.6l-47.4-47.4v235H631c0-18.2 3.3-36.2 9.9-52.9 6.6-16.6 16.4-32 29.2-44.9 40.3-40.5 65.2-96.2 65.2-157.9 0.2-128.7-108.1-232.1-238.5-223.9z" p-id="6353" fill="#ffffff"></path></svg>