<?xml version="1.0" standalone="no"?><!DOCTYPE svg PUBLIC "-//W3C//DTD SVG 1.1//EN" "http://www.w3.org/Graphics/SVG/1.1/DTD/svg11.dtd"><svg t="1681022216367" class="icon" viewBox="0 0 1024 1024" version="1.1" xmlns="http://www.w3.org/2000/svg" p-id="18886" xmlns:xlink="http://www.w3.org/1999/xlink" width="200" height="200"><path d="M807.668 62H218.579c-49.626 0-90 40.383-90 90v785.453c0 13.553 10.988 24.546 24.545 24.546 1.375 0 2.716-0.142 4.026-0.358a24.535 24.535 0 0 0 19.346-4.9l101.058-79.596 101.057 79.596c8.908 6.997 21.454 6.997 30.379 0l104.86-82.585 101.634 80.045a24.603 24.603 0 0 0 30.379 0l100.977-79.533 102.91 81.05c4.82 3.795 10.598 5.48 16.265 5.227A24.548 24.548 0 0 0 873.12 962c13.562 0 24.546-10.994 24.546-24.545V151.999C897.668 102.38 857.295 62 807.668 62z m40.911 830.295l-86.548-68.155c-8.918-7-21.463-7-30.38 0l-100.979 79.53-101.632-80.044a24.6 24.6 0 0 0-30.378 0L393.8 906.212l-101.058-79.596c-8.917-7-21.461-7-30.378 0l-84.694 66.7V151.999c0-22.563 18.353-40.908 40.908-40.908h589.09c22.556 0 40.908 18.345 40.908 40.908v740.296z" fill="#ffffff" p-id="18887"></path><path d="M721.96 341.084H293.044c-8.245 0-14.928 6.684-14.928 14.928v24.116c0 8.246 6.684 14.928 14.928 14.928H721.96c8.245 0 14.928-6.683 14.928-14.928v-24.116c0.001-8.244-6.682-14.928-14.927-14.928zM293.044 251.129h308.911c8.245 0 14.928-6.684 14.928-14.928v-24.116c0-8.246-6.683-14.928-14.928-14.928h-308.91c-8.246 0-14.929 6.683-14.929 14.928V236.2c0 8.244 6.684 14.928 14.928 14.928zM721.96 485.013H293.044c-8.245 0-14.928 6.684-14.928 14.928v24.116c0 8.245 6.684 14.928 14.928 14.928H721.96c8.245 0 14.928-6.683 14.928-14.928V499.94c0.001-8.244-6.682-14.928-14.927-14.928zM721.96 628.941H293.044c-8.245 0-14.928 6.683-14.928 14.928v24.116c0 8.246 6.684 14.928 14.928 14.928H721.96c8.245 0 14.928-6.682 14.928-14.928V643.87c0.001-8.245-6.682-14.928-14.927-14.928z" fill="#ffffff" p-id="18888"></path></svg>