<?xml version="1.0" standalone="no"?><!DOCTYPE svg PUBLIC "-//W3C//DTD SVG 1.1//EN" "http://www.w3.org/Graphics/SVG/1.1/DTD/svg11.dtd"><svg t="1681022251873" class="icon" viewBox="0 0 1024 1024" version="1.1" xmlns="http://www.w3.org/2000/svg" p-id="19896" xmlns:xlink="http://www.w3.org/1999/xlink" width="200" height="200"><path d="M526.894545 405.876364l55.854546 111.709091c3.723636 7.447273 11.170909 14.894545 22.341818 14.894545l122.88 18.618182c11.170909 0 18.618182 11.170909 14.894546 22.341818 0 3.723636-3.723636 7.447273-7.447273 11.170909L646.050909 670.254545c-7.447273 7.447273-11.170909 18.618182-7.447273 26.065455l22.341819 122.88c0 11.170909-3.723636 22.341818-14.894546 22.341818-3.723636 0-7.447273 0-11.170909-3.723636L526.894545 781.963636c-7.447273-3.723636-18.618182-3.723636-29.78909 0l-107.985455 55.854546c-11.170909 3.723636-22.341818 0-26.065455-7.447273-3.723636-3.723636-3.723636-7.447273-3.723636-11.170909l22.341818-122.88c0-11.170909 0-18.618182-7.447272-26.065455L281.134545 584.610909c-7.447273-7.447273-7.447273-18.618182 0-26.065454 3.723636-3.723636 7.447273-3.723636 11.17091-7.447273l122.88-18.618182c11.170909 0 18.618182-7.447273 22.341818-14.894545l55.854545-111.709091c3.723636-11.170909 14.894545-14.894545 26.065455-7.447273 3.723636 3.723636 7.447273 3.723636 7.447272 7.447273z" opacity=".8" p-id="19897" fill="#ffffff"></path><path d="M999.796364 7.447273c-3.723636-3.723636-11.170909-7.447273-14.894546-7.447273h-260.654545c-7.447273 0-14.894545 3.723636-18.618182 11.170909L616.261818 249.483636c-33.512727-11.170909-70.749091-14.894545-104.261818-14.894545-33.512727 0-70.749091 3.723636-104.261818 14.894545L318.370909 11.170909C314.647273 3.723636 307.2 0 299.752727 0h-260.654545C31.650909 0 27.927273 3.723636 24.203636 7.447273 20.48 11.170909 20.48 18.618182 20.48 26.065455l148.945455 398.42909c-11.170909 14.894545-18.618182 33.512727-26.065455 48.407273-81.92 201.076364 14.894545 431.941818 212.247273 517.585455 201.076364 85.643636 431.941818-11.170909 517.585454-212.247273 40.96-96.814545 40.96-208.523636 0-305.338182-7.447273-18.618182-14.894545-33.512727-26.065454-48.407273L999.796364 22.341818c3.723636-3.723636 3.723636-11.170909 0-14.894545zM65.163636 37.236364h223.418182l81.92 223.418181c-3.723636 0-7.447273 3.723636-14.894545 3.723637-44.683636 18.618182-89.367273 48.407273-122.88 85.643636-14.894545 11.170909-26.065455 22.341818-37.236364 37.236364L65.163636 37.236364zM765.207273 882.501818c-141.498182 137.774545-368.64 137.774545-506.414546 0-119.156364-119.156364-141.498182-305.338182-52.130909-443.112727 44.683636-70.749091 111.709091-122.88 193.629091-148.945455 70.749091-22.341818 148.945455-22.341818 219.694546 0 78.196364 26.065455 148.945455 78.196364 193.62909 148.945455 89.367273 141.498182 67.025455 323.956364-48.407272 443.112727z m59.578182-495.243636c-11.170909-14.894545-22.341818-26.065455-33.512728-40.96-37.236364-37.236364-78.196364-63.301818-126.603636-85.643637-3.723636 3.723636-11.170909 0-14.894546 0l81.92-223.418181h223.418182l-130.327272 350.021818z" opacity=".8" p-id="19898" fill="#ffffff"></path></svg>