<?xml version="1.0" standalone="no"?><!DOCTYPE svg PUBLIC "-//W3C//DTD SVG 1.1//EN" "http://www.w3.org/Graphics/SVG/1.1/DTD/svg11.dtd"><svg t="1681973402565" class="icon" viewBox="0 0 1024 1024" version="1.1" xmlns="http://www.w3.org/2000/svg" p-id="2412" xmlns:xlink="http://www.w3.org/1999/xlink" width="200" height="200"><path d="M1006.976 360.512l-485.696-230.4a21.504 21.504 0 0 0-18.56 0l-485.696 230.4C6.784 365.44 0 377.728 0 391.488c0 13.76 6.784 26.048 17.024 30.912l485.696 230.4a21.12 21.12 0 0 0 18.56 0l377.6-179.136v183.296c-20.224 11.84-34.304 37.568-34.304 67.456 0 29.888 14.08 55.616 34.304 67.456v63.936h49.792v-64c20.224-11.776 34.304-37.504 34.304-67.392 0-29.952-14.08-55.68-34.304-67.456V450.112l58.304-27.712c10.24-4.864 17.024-17.152 17.024-30.912 0-13.76-6.784-26.112-17.024-30.976zM512 699.072a50.368 50.368 0 0 1-21.696-4.992l-302.72-143.616V748.8c0 162.432 220.8 211.2 289.792 211.2H546.56c51.776 0 289.92-48.768 289.92-211.2V550.4l-302.784 143.68a50.176 50.176 0 0 1-21.696 4.992z" fill="#ffffff" p-id="2413"></path></svg>